<svg width="32" height="32" viewBox="0 0 32 32" fill="none" xmlns="http://www.w3.org/2000/svg">
<rect width="32" height="32" rx="10" fill="#E5CDFE"/>
<path d="M11.4981 25.2023C11.059 25.2023 10.7207 24.8567 10.7207 24.4248C10.7207 23.9857 11.059 23.6474 11.4981 23.6474H14.5287L15.1694 16.6432C15.227 16.0673 15.4574 15.6066 15.8245 15.2395L19.0351 12.0289L18.6319 11.669C18.4016 11.8705 18.0992 11.8921 17.8689 11.6762L14.0248 8.22085C13.7729 7.99049 13.7657 7.65936 13.9817 7.40741L14.3416 6.98989C14.5647 6.74514 14.9175 6.72355 15.155 6.9467L19.0207 10.4236C19.2438 10.6252 19.2942 10.9419 19.0998 11.1867L19.503 11.5538L19.9421 11.1219C20.1652 10.8915 20.5036 10.8339 20.7915 10.9563C21.0866 11.0715 21.281 11.3522 21.281 11.6762V15.8009C21.281 16.2257 20.9283 16.5856 20.5036 16.5856H18.4088C18.2936 16.5856 18.2072 16.6576 18.1928 16.7799L17.9697 19.2347L20.5827 19.5226C21.0075 19.5658 21.353 19.9329 21.245 20.5088L20.518 24.5616C20.4316 25.0655 20.0141 25.2455 19.6397 25.2023C19.2438 25.1663 18.8839 24.8208 18.9775 24.2809L19.5533 21.0847H16.6451L16.0117 24.5616C15.9397 24.9791 15.7165 25.2023 15.2486 25.2023H11.4981ZM15.1766 14.1309C14.2768 14.1309 13.5569 13.411 13.5569 12.5112C13.5569 11.6258 14.2768 10.9059 15.1766 10.9059C16.062 10.9059 16.7819 11.6258 16.7819 12.5112C16.7819 13.411 16.062 14.1309 15.1766 14.1309ZM19.7405 13.519L18.2216 15.0307H19.7405V13.519Z" fill="#9025FF"/>
</svg>
