<svg width="24" height="25" viewBox="0 0 24 25" fill="none" xmlns="http://www.w3.org/2000/svg">
<path d="M8.86712 10.4567L12.0044 7.31936L15.1417 10.4567C15.4571 10.772 15.9665 10.772 16.2818 10.4567C16.5972 10.1413 16.5972 9.63192 16.2818 9.31657L12.5704 5.60516C12.2551 5.28982 11.7457 5.28982 11.4303 5.60516L7.71893 9.31657C7.40358 9.63192 7.40358 10.1413 7.71893 10.4567C8.03428 10.7639 8.55178 10.772 8.86712 10.4567Z" fill="#101011"/>
<path d="M8.86712 14.5432L12.0044 17.6805L15.1417 14.5432C15.4571 14.2278 15.9665 14.2278 16.2818 14.5432C16.5972 14.8585 16.5972 15.3679 16.2818 15.6833L12.5704 19.3947C12.2551 19.71 11.7457 19.71 11.4303 19.3947L7.71893 15.6833C7.40358 15.3679 7.40358 14.8585 7.71893 14.5432C8.03428 14.2359 8.55178 14.2278 8.86712 14.5432Z" fill="#101011"/>
</svg>
