<svg width="16" height="17" viewBox="0 0 16 17" fill="none" xmlns="http://www.w3.org/2000/svg">
<path d="M8.36107 7.86499V2.16431C10.3186 2.26862 12.2208 3.37317 13.2886 5.02999L8.36107 7.86499ZM7.99902 14.8359C4.53198 14.8359 1.66016 11.9641 1.66016 8.49704C1.66016 5.23249 4.19448 2.50181 7.37925 2.18885V8.59522C7.37925 8.78545 7.4222 8.8959 7.54493 9.01249L12.0183 13.3755C10.8831 14.3082 9.47175 14.8359 7.99902 14.8359ZM14.3379 8.4909C14.3379 10.0618 13.7304 11.5652 12.7424 12.6759L8.75993 8.76704L13.7611 5.89522C14.1293 6.6684 14.3379 7.58886 14.3379 8.4909Z" fill="#101011" fill-opacity="0.6"/>
</svg>
