<svg width="16" height="17" viewBox="0 0 16 17" fill="none" xmlns="http://www.w3.org/2000/svg">
<path d="M0.416016 8.132C0.416016 7.96165 0.496795 7.78522 0.658355 7.65138L7.13317 2.32804C7.67377 1.89 8.34487 1.89 8.87926 2.32804L11.837 4.76765V3.6969C11.837 3.42312 12.0235 3.24669 12.3031 3.24669H13.1419C13.4154 3.24669 13.5956 3.42312 13.5956 3.6969V6.20951L15.3416 7.65138C15.5032 7.77914 15.584 7.9434 15.584 8.15025C15.584 8.49703 15.3106 8.71604 14.9502 8.71604C14.7575 8.71604 14.5898 8.61262 14.4406 8.49094L8.2703 3.42312C8.10253 3.27711 7.9099 3.27711 7.74213 3.42312L1.56557 8.49094C1.41644 8.61262 1.24867 8.71604 1.05604 8.71604C0.658355 8.71604 0.416016 8.44836 0.416016 8.132ZM2.4293 13.6013V8.9594L7.61785 4.70073C7.85397 4.50604 8.14603 4.49996 8.38215 4.70073L13.5769 8.96548V13.6013C13.5769 14.4774 13.0177 15.0006 12.098 15.0006H3.90198C2.98854 15.0006 2.4293 14.4774 2.4293 13.6013ZM9.62492 13.8082V9.8598C9.62492 9.57386 9.4385 9.39135 9.14645 9.39135H6.85355C6.5615 9.39135 6.36887 9.57386 6.36887 9.8598V13.8082H9.62492Z" fill="#101011" fill-opacity="0.6"/>
</svg>
