<svg width="16" height="17" viewBox="0 0 16 17" fill="none" xmlns="http://www.w3.org/2000/svg">
<path d="M4.66149 4.45944C4.66149 3.26202 5.29194 2.33594 6.10006 2.33594C6.90818 2.33594 7.5329 3.26202 7.5329 4.45944C7.5329 5.65096 6.90818 6.58295 6.10006 6.58295C5.29767 6.58295 4.66149 5.65096 4.66149 4.45944ZM8.46137 4.45944C8.46137 3.26202 9.09182 2.33594 9.89994 2.33594C10.7023 2.33594 11.3328 3.26202 11.3328 4.45944C11.3328 5.65096 10.7023 6.58295 9.89994 6.58295C9.09182 6.58295 8.46137 5.65096 8.46137 4.45944ZM1.83594 7.92783C1.83594 6.73631 2.46065 5.80433 3.26304 5.80433C4.07116 5.80433 4.70161 6.73631 4.70161 7.92783C4.70161 9.12525 4.07116 10.0572 3.26304 10.0572C2.46065 10.0572 1.83594 9.12525 1.83594 7.92783ZM11.2984 7.92783C11.2984 6.73631 11.9231 5.80433 12.7312 5.80433C13.5393 5.80433 14.1641 6.73631 14.1641 7.92783C14.1641 9.12525 13.5393 10.0572 12.7312 10.0572C11.9231 10.0572 11.2984 9.12525 11.2984 7.92783ZM3.61265 12.5524C3.61265 11.5142 4.22018 10.9833 4.78758 10.5055C5.1028 10.2401 5.4123 9.98645 5.61863 9.66203C5.78483 9.40249 5.92239 9.11936 6.05421 8.83622C6.46687 7.92193 6.79928 7.04304 7.99713 7.04304C9.19499 7.04304 9.5274 7.92193 9.94579 8.83622C10.0719 9.11936 10.2152 9.40839 10.3814 9.66793C10.5877 9.99235 10.8915 10.2401 11.2067 10.5055C11.7741 10.9833 12.3816 11.5142 12.3816 12.5524C12.3816 13.7852 11.5735 14.6641 10.3928 14.6641C9.81397 14.6641 9.39558 14.4989 8.99439 14.3514C8.67343 14.2394 8.36967 14.1332 7.99713 14.1332C7.6246 14.1332 7.32084 14.2394 6.99988 14.3514C6.60442 14.4989 6.1803 14.6641 5.60143 14.6641C4.42077 14.6641 3.61265 13.7852 3.61265 12.5524Z" fill="#101011" fill-opacity="0.6"/>
</svg>
