<svg width="32" height="32" viewBox="0 0 32 32" fill="none" xmlns="http://www.w3.org/2000/svg">
<rect width="32" height="32" rx="10" fill="#F4D2FB"/>
<path d="M16.0056 12.2662C15.0359 12.2662 14.2523 11.4905 14.2523 10.5207C14.2523 9.55875 15.0359 8.78296 16.0056 8.78296C16.9598 8.78296 17.7356 9.55875 17.7356 10.5207C17.7356 11.4905 16.9598 12.2662 16.0056 12.2662ZM7.92193 15.5013C7.56507 15.1367 7.55731 14.5781 7.92193 14.2212C8.26328 13.8644 8.84512 13.8644 9.20198 14.2212L11.1182 16.1374L13.0732 13.748C13.4067 13.3368 13.9032 13.0731 14.4463 13.0731H17.5572C18.1003 13.0731 18.5968 13.3368 18.9381 13.748L20.8931 16.1374L22.8015 14.2212C23.1584 13.8644 23.7402 13.8644 24.0816 14.2212C24.4462 14.5781 24.4384 15.1367 24.0816 15.5013L21.4594 18.1389C21.087 18.5113 20.4742 18.5191 20.1095 18.0691L18.4959 16.0754C18.3951 15.9512 18.2321 16.021 18.2321 16.1684V19.5431L21.1569 19.2173C22.2119 19.0932 22.561 20.6447 21.5447 20.9861L18.2011 22.0877C18.3563 22.7937 17.7279 23.3988 17.0297 23.166L16.0056 22.8247L14.9738 23.166C14.2756 23.3988 13.655 22.7937 13.8024 22.0877L10.4588 20.9861C9.44247 20.6447 9.79158 19.0932 10.8466 19.2173L13.7791 19.5431V16.1684C13.7791 16.021 13.6162 15.9512 13.5154 16.0754L11.894 18.0691C11.5293 18.5191 10.9242 18.5113 10.5441 18.1389L7.92193 15.5013Z" fill="#D33AF1"/>
</svg>
