<svg width="32" height="32" viewBox="0 0 32 32" fill="none" xmlns="http://www.w3.org/2000/svg">
<rect width="32" height="32" rx="10" fill="#CDF5E0"/>
<path d="M20.388 11.26C19.5992 11.26 18.9587 10.6128 18.9587 9.82404C18.9587 9.03525 19.5992 8.39478 20.388 8.39478C21.1768 8.39478 21.8172 9.03525 21.8172 9.82404C21.8172 10.6128 21.1768 11.26 20.388 11.26ZM12.1562 11.5499C11.3674 11.5499 10.727 10.9027 10.727 10.1139C10.727 9.32515 11.3674 8.68467 12.1562 8.68467C12.9518 8.68467 13.5922 9.32515 13.5922 10.1139C13.5922 10.9027 12.9518 11.5499 12.1562 11.5499ZM8.21227 13.3298C7.7336 13.2961 7.40999 12.8174 7.56505 12.3657L8.52913 9.48021C8.65723 9.10267 9.07522 8.90041 9.45276 9.02176C9.8303 9.14312 10.046 9.56111 9.9112 9.95213L9.24376 11.9477L12.1158 12.1702C12.4663 12.1972 12.7832 12.2848 13.1001 12.4466L15.1698 13.4781H17.3744L18.6958 12.3387C19.3565 11.7724 20.2127 11.6241 21.0082 11.887L22.9027 12.5208L22.6937 10.4308C22.6532 10.0263 22.9566 9.66224 23.3476 9.62178C23.7319 9.58133 24.1027 9.86449 24.1432 10.2825L24.4668 13.5185C24.5207 14.0916 24.0825 14.4557 23.5094 14.2601L22.7139 13.9905C22.5588 13.9365 22.4307 14.0377 22.4645 14.1995L22.7072 15.5478C22.8285 16.222 22.6802 16.9569 22.2757 17.5232L20.7048 19.7547L21.8442 22.5998C21.9925 22.9706 21.8105 23.402 21.4397 23.5504C21.0959 23.6919 20.6509 23.5504 20.4891 23.1391L19.2014 19.93C19.1138 19.7143 19.1677 19.4783 19.2756 19.2693L20.1857 17.4423L18.3048 17.7254L18.0486 20.2873C18.0149 20.6716 17.698 20.948 17.3205 20.948C16.9699 20.948 16.5519 20.6312 16.5991 20.1525L16.9025 17.0243C16.9362 16.7209 17.1519 16.4715 17.4485 16.3906L20.2059 15.6287L19.552 13.8287C19.5115 13.7073 19.3834 13.6601 19.2756 13.7545L18.1092 14.759C17.9879 14.8669 17.8059 14.9343 17.6441 14.9343H15.0822C14.9204 14.9343 14.7181 14.8871 14.6035 14.8265L12.999 14.0242C12.8843 13.9635 12.763 14.0242 12.7495 14.159L12.5405 16.2288L17.1789 22.1009C17.4283 22.4177 17.3676 22.8627 17.0508 23.1256C16.7541 23.3751 16.2822 23.3144 16.0328 23.0043L13.4641 19.7547C13.4641 19.8087 13.4574 19.8559 13.4372 19.9098L12.4933 23.0784C12.3652 23.5032 11.954 23.6785 11.5832 23.5773C11.1989 23.4695 10.9764 23.0515 11.091 22.6604L11.9472 19.8221L10.2753 17.6715C9.95165 17.2603 9.78311 16.7411 9.78311 16.2153V13.6129C9.78311 13.5118 9.72243 13.4511 9.62805 13.4444L8.21227 13.3298Z" fill="#24CE70"/>
</svg>
