<svg width="32" height="32" viewBox="0 0 32 32" fill="none" xmlns="http://www.w3.org/2000/svg">
<rect width="32" height="32" rx="10" fill="#C4ECF3"/>
<g clip-path="url(#clip0_144_8352)">
<path d="M13.5432 10.5237C12.9132 10.5237 12.4049 10.0225 12.4049 9.38536C12.4049 8.75536 12.9132 8.24707 13.5432 8.24707C14.1804 8.24707 14.6887 8.75536 14.6887 9.38536C14.6887 10.0225 14.1804 10.5237 13.5432 10.5237ZM17.6239 12.6069C16.729 12.6069 16.0131 11.891 16.0131 10.9962C16.0131 10.1156 16.729 9.39252 17.6239 9.39252C18.5116 9.39252 19.2275 10.1156 19.2275 10.9962C19.2275 11.891 18.5116 12.6069 17.6239 12.6069ZM6.75642 20.4748C6.32688 20.4748 5.99756 20.1454 5.99756 19.7087C5.99756 19.2864 6.32688 18.9427 6.75642 18.9427H10.6939L13.8797 17.8331C14.2305 17.7042 14.4739 17.4393 14.567 17.0742L15.154 14.8191C15.1898 14.6831 15.0967 14.5757 14.9679 14.5757H11.9396C11.5029 14.5757 11.1664 14.2249 11.1664 13.8025V11.2181C11.1664 10.7885 11.5029 10.4449 11.9396 10.4449C12.362 10.4449 12.7056 10.7885 12.7056 11.2181V13.0436H14.4954C15.8556 13.0436 17.044 13.2226 18.9555 13.6021L25.3915 14.8907C25.8139 14.9766 26 15.3202 26 15.6424C26 16.0791 25.6707 16.5158 25.0836 16.4013L18.5832 15.1055C18.483 15.084 18.4042 15.1341 18.3756 15.2343L16.3854 23.2167C16.2422 23.7894 15.5621 23.9183 15.0108 23.5317L12.6412 21.8636C12.2904 21.6131 12.2188 21.1262 12.4694 20.7826C12.7128 20.439 13.1996 20.3602 13.5432 20.6036L15.0251 21.656L15.2686 19.5942C15.2829 19.5083 15.2113 19.4439 15.1325 19.4653L11.195 20.4175C11.0304 20.4604 10.9373 20.4748 10.7154 20.4748H6.75642Z" fill="#0AA9CD"/>
</g>
<defs>
<clipPath id="clip0_144_8352">
<rect width="20" height="20" fill="white" transform="translate(6 6)"/>
</clipPath>
</defs>
</svg>
