<svg width="16" height="17" viewBox="0 0 16 17" fill="none" xmlns="http://www.w3.org/2000/svg">
<path d="M7.99902 14.6611C4.62919 14.6611 1.83789 11.8758 1.83789 8.5C1.83789 5.13016 4.62322 2.33887 7.99306 2.33887C11.3689 2.33887 14.1602 5.13016 14.1602 8.5C14.1602 11.8758 11.3689 14.6611 7.99902 14.6611ZM7.99902 11.9832C8.16006 11.9832 8.28531 11.8698 8.28531 11.6969V11.2794C9.28731 11.1899 10.0388 10.6173 10.0388 9.67497C10.0388 8.82804 9.4901 8.32703 8.41653 8.13021L8.28531 8.10039V6.55563C8.67896 6.62124 8.95331 6.85981 9.0726 7.22364C9.16206 7.42642 9.29924 7.55167 9.51396 7.55167C9.76446 7.55167 9.93742 7.38467 9.93742 7.1461C9.93742 7.07453 9.91953 7.00296 9.90164 6.93735C9.73464 6.29321 9.11435 5.83395 8.28531 5.74449V5.33295C8.28531 5.15999 8.16006 5.0407 7.99902 5.0407C7.83202 5.0407 7.71274 5.15999 7.71274 5.33295V5.74449C6.74055 5.83992 6.04273 6.43635 6.04273 7.30714C6.04273 8.10636 6.58548 8.57754 7.61731 8.82207L7.71274 8.84593V10.4802C7.21173 10.4145 6.91948 10.1402 6.82405 9.77636C6.74055 9.54972 6.59145 9.44236 6.3827 9.44236C6.12623 9.44236 5.95923 9.61533 5.95923 9.85986C5.95923 9.93143 5.97116 10.003 5.99502 10.0746C6.17394 10.7366 6.83598 11.2018 7.71274 11.2734V11.6969C7.71274 11.8698 7.83202 11.9832 7.99902 11.9832ZM7.71274 7.95725L7.67099 7.94532C7.17595 7.80218 6.94931 7.5815 6.94931 7.24749C6.94931 6.90753 7.23559 6.62124 7.71274 6.54967V7.95725ZM8.28531 8.98311L8.39863 9.01293C8.94138 9.15607 9.13821 9.38868 9.13821 9.73461C9.13821 10.1283 8.85192 10.4205 8.28531 10.4802V8.98311Z" fill="#101011" fill-opacity="0.6"/>
</svg>
