<svg width="16" height="17" viewBox="0 0 16 17" fill="none" xmlns="http://www.w3.org/2000/svg">
<path d="M6.59498 4.85633L4.68403 1.5H11.3136L9.40883 4.85633H6.59498ZM4.09034 8.60393L2.10518 5.08865C1.96294 4.83188 1.96294 4.59956 2.11755 4.37336L3.78112 1.88515L6.59498 6.87991C5.58075 7.17948 4.70877 7.79694 4.09034 8.60393ZM9.40883 6.87991L12.2165 1.88515L13.8801 4.37336C14.0347 4.59956 14.0409 4.83188 13.8924 5.08865L11.9135 8.61004C11.2889 7.79694 10.4231 7.17948 9.40883 6.87991ZM7.99881 15.5C5.77247 15.5 3.96665 13.7148 3.96665 11.514C3.96665 9.3131 5.77247 7.52795 7.99881 7.52795C10.2252 7.52795 12.031 9.3131 12.031 11.514C12.031 13.7148 10.2252 15.5 7.99881 15.5ZM6.8609 13.562L8.005 12.7428L9.14291 13.562C9.39646 13.7454 9.66239 13.5681 9.55725 13.2686L9.11198 11.9419L10.2561 11.1227C10.4787 10.9699 10.4292 10.6336 10.1015 10.6336L8.68527 10.6459L8.25237 9.3131C8.1596 9.02576 7.8442 9.02576 7.75144 9.3131L7.31854 10.6459L5.90234 10.6336C5.58075 10.6336 5.51891 10.9638 5.74773 11.1288L6.89801 11.9419L6.44655 13.2686C6.34142 13.562 6.61353 13.7454 6.8609 13.562Z" fill="#101011" fill-opacity="0.6"/>
</svg>
