<svg width="24" height="24" viewBox="0 0 24 24" fill="none" xmlns="http://www.w3.org/2000/svg">
<path d="M7.27637 18.8399C5.83887 18.8399 5.15918 18.1602 5.15918 16.7227V15.0508C5.15918 14.9024 5.12012 14.793 5.01075 14.6836L3.83106 13.4961C2.81543 12.4805 2.80762 11.5274 3.83106 10.5117L5.01075 9.32423C5.12012 9.21485 5.15918 9.10548 5.15918 8.95704V7.28517C5.15918 5.83204 5.83106 5.16798 7.27637 5.16798H8.94825C9.09668 5.16798 9.20606 5.1211 9.31543 5.01954L10.5029 3.83985C11.5186 2.81642 12.4717 2.8086 13.4873 3.83204L14.6748 5.01954C14.7842 5.12892 14.8936 5.16798 15.0498 5.16798H16.7217C18.1592 5.16798 18.8311 5.84767 18.8311 7.28517V8.95704C18.8311 9.10548 18.8701 9.20704 18.9873 9.32423L20.167 10.5117C21.1826 11.5274 21.1904 12.4805 20.167 13.4961L18.9873 14.6836C18.8779 14.793 18.8311 14.9024 18.8311 15.0508V16.7227C18.8311 18.1602 18.1514 18.8399 16.7217 18.8399H15.0498C14.8936 18.8399 14.792 18.8789 14.6748 18.9883L13.4873 20.168C12.4717 21.1836 11.5186 21.1914 10.5029 20.168L9.31543 18.9883C9.20606 18.8789 9.09668 18.8399 8.94825 18.8399H7.27637ZM11.1279 15.8555C11.4248 15.8555 11.6748 15.7149 11.8467 15.4414L15.5107 9.7461C15.6201 9.57423 15.7139 9.37892 15.7139 9.19923C15.7139 8.78517 15.3545 8.51173 14.9639 8.51173C14.7217 8.51173 14.5029 8.65235 14.3311 8.92579L11.1045 14.0899L9.59668 12.1836C9.39356 11.9258 9.20606 11.8399 8.96387 11.8399C8.56543 11.8399 8.24512 12.1602 8.24512 12.5586C8.24512 12.7617 8.31543 12.9414 8.45606 13.1211L10.3701 15.4492C10.5967 15.7305 10.8311 15.8555 11.1279 15.8555Z" fill="#7221EC"/>
</svg>
