<svg width="16" height="17" viewBox="0 0 16 17" fill="none" xmlns="http://www.w3.org/2000/svg">
<path d="M7.60764 4.48929C7.52237 4.48929 7.47365 4.43447 7.46147 4.3553C7.28484 3.3747 7.29702 3.33207 6.24943 3.14326C6.16416 3.13107 6.10934 3.07626 6.10934 2.99708C6.10934 2.91181 6.16416 2.86309 6.24334 2.84481C7.30311 2.64991 7.28484 2.61337 7.46147 1.63277C7.47365 1.5536 7.52237 1.49878 7.60764 1.49878C7.69291 1.49878 7.74164 1.5536 7.75991 1.63277C7.93045 2.61946 7.91826 2.66209 8.97195 2.84481C9.05113 2.85699 9.10594 2.91181 9.10594 2.99708C9.10594 3.07626 9.05113 3.13107 8.97195 3.14326C7.91826 3.33816 7.93045 3.38079 7.75991 4.3553C7.74164 4.43447 7.69291 4.48929 7.60764 4.48929ZM4.65977 8.74666C4.53186 8.74666 4.4405 8.66139 4.42832 8.52739C4.22733 6.91337 4.16033 6.86464 2.50977 6.60275C2.36359 6.58447 2.27832 6.5053 2.27832 6.37739C2.27832 6.24949 2.36359 6.16422 2.4854 6.14595C4.15424 5.83532 4.22733 5.83532 4.42832 4.2213C4.4405 4.08731 4.53186 4.00204 4.65977 4.00204C4.78158 4.00204 4.87294 4.08731 4.88512 4.21521C5.09829 5.85969 5.15311 5.9145 6.82804 6.14595C6.94376 6.15813 7.03512 6.24949 7.03512 6.37739C7.03512 6.4992 6.94985 6.58447 6.82804 6.60275C5.14702 6.91946 5.09829 6.92555 4.88512 8.53957C4.87294 8.66139 4.78158 8.74666 4.65977 8.74666ZM8.86841 15.5012C8.68569 15.5012 8.53951 15.3672 8.50906 15.1723C8.04008 11.8712 7.59546 11.4448 4.35523 11.0124C4.15424 10.988 4.01416 10.8357 4.01416 10.6469C4.01416 10.4581 4.15424 10.312 4.36132 10.2876C7.60764 9.92824 8.07053 9.42881 8.50906 6.12768C8.53951 5.93277 8.6796 5.79878 8.86841 5.79878C9.05722 5.79878 9.1973 5.93277 9.22775 6.12768C9.68455 9.42881 10.1353 9.90997 13.3816 10.2876C13.5826 10.312 13.7227 10.4581 13.7227 10.6469C13.7227 10.8418 13.5826 10.988 13.3816 11.0124C10.1292 11.3717 9.66628 11.8712 9.22775 15.1723C9.1973 15.3672 9.05722 15.5012 8.86841 15.5012Z" fill="#101011" fill-opacity="0.6"/>
</svg>
