<svg width="104" height="23" viewBox="0 0 104 23" fill="none" xmlns="http://www.w3.org/2000/svg">
<path d="M4.96 0.119999H28.032L27.04 4.952H10.432L9.504 9.336H25.344L24.416 13.752H8.576L7.616 18.168H24.224L23.2 23H0.096L4.96 0.119999ZM40.5533 11.16L31.7533 0.119999H39.5613L45.2893 7.8L54.2813 0.119999H63.6893L49.1933 11.96L58.0253 23H50.2173L44.4893 15.32L35.4653 23H26.0572L40.5533 11.16ZM66.9608 0.119999H82.7688C85.7768 0.119999 88.0594 0.695999 89.6168 1.848C91.1741 3 91.9528 4.696 91.9528 6.936C91.9528 7.72533 91.8568 8.568 91.6648 9.464C91.3448 11 90.6728 12.344 89.6488 13.496C88.6248 14.6267 87.3341 15.5013 85.7768 16.12C84.2194 16.7387 82.4701 17.048 80.5288 17.048H69.8408L68.5608 23H62.0648L66.9608 0.119999ZM80.5288 11.704C81.9368 11.704 83.0141 11.4693 83.7608 11C84.5074 10.5307 84.9981 9.74133 85.2328 8.632C85.3181 8.312 85.3608 7.992 85.3608 7.672C85.3608 6.904 85.0728 6.34933 84.4968 6.008C83.9421 5.66667 83.0781 5.496 81.9048 5.496H72.2728L70.9608 11.704H80.5288ZM97.1795 0.119999H103.676L98.8115 23H92.2835L97.1795 0.119999Z" fill="#24CE70"/>
</svg>
